<svg width="40" height="50" viewBox="0 0 40 50" fill="none" xmlns="http://www.w3.org/2000/svg">
<path d="M39.7864 19.8987C39.7864 19.6752 39.7344 19.4549 39.6345 19.255C38.9453 17.8766 37.9252 16.8675 36.6522 16.2899C36.1521 11.1849 32.1412 7.03257 31.657 6.54841C31.3871 6.27851 31.0211 6.12681 30.6393 6.12681C29.9686 6.12681 29.1696 6.27141 28.2863 6.53632C27.1606 4.58884 25.4837 3.08388 24.4789 2.2899C20.4009 -0.770109 19.2817 -0.756484 15.2176 2.2899C14.2127 3.08388 12.5359 4.58884 11.4101 6.53632C10.5269 6.27141 9.72778 6.12681 9.05709 6.12681C8.67531 6.12681 8.30926 6.27851 8.03936 6.54841C7.5552 7.03257 3.54433 11.1849 3.04425 16.2899C1.77119 16.8675 0.751064 17.8766 0.061861 19.2551C-0.702374 28.2385 5.71422 36.3179 13.7841 38.8931V47.6473C13.7841 48.4421 14.4285 49.0865 15.2234 49.0865H24.4729C25.2677 49.0865 25.9121 48.4421 25.9121 47.6473V38.893C33.9501 36.3209 39.7864 28.7791 39.7864 19.8987ZM32.2734 12.1551C32.9571 13.378 33.4226 14.5878 33.6543 15.7263C30.9512 15.7893 28.1844 17.0921 26.6364 17.9566C25.401 16.2216 23.8952 14.5575 22.1405 12.9866C23.4711 12.0249 24.8604 11.169 26.2065 10.4883C27.9108 9.62627 29.232 9.20169 30.0704 9.06055C30.6147 9.66896 31.4816 10.7387 32.2734 12.1551ZM19.8482 36.9584C15.5416 36.9584 12.0379 33.4548 12.0379 29.1482C12.0379 22.5748 16.9194 17.3485 19.8291 14.8184C19.8354 14.8129 19.8419 14.8075 19.8482 14.8021C19.8545 14.8075 19.861 14.8129 19.8673 14.8184C22.777 17.3485 27.6585 22.5748 27.6585 29.1482C27.6585 33.4548 24.1548 36.9584 19.8482 36.9584ZM19.8482 2.84804C20.7001 3.05356 23.8932 5.00401 25.5694 7.60395C23.7242 8.47747 21.7301 9.68959 19.8482 11.1053C17.9663 9.68959 15.9722 8.47747 14.127 7.60395C15.8032 5.00411 18.9963 3.05356 19.8482 2.84804ZM9.62549 9.06055C11.7507 9.38236 15.4263 11.3944 17.5559 12.9867C15.8011 14.5578 14.2952 16.2219 13.0598 17.9569C11.5119 17.0922 8.74468 15.7889 6.04112 15.7262C6.59082 13.0282 8.36722 10.4676 9.62549 9.06055ZM2.79209 20.2556C4.63412 17.131 9.11111 19.1205 11.5281 20.3944C9.21541 24.745 8.15152 29.7382 10.3626 34.0706C5.89058 31.0681 2.91088 26.0072 2.79209 20.2556ZM23.0337 46.2079H16.6627V39.5813C17.6122 39.7344 18.5839 39.8199 19.5727 39.8335C19.7557 39.8381 19.9408 39.8381 20.1238 39.8335C21.1126 39.8199 22.0843 39.7344 23.0338 39.5813V46.2079H23.0337ZM29.3345 34.0695C31.5446 29.7353 30.4811 24.7464 28.1682 20.3943C29.9537 19.4144 32.873 18.1866 34.9544 18.7309C35.7884 18.949 36.4289 19.4491 36.9043 20.2557C36.7854 26.0068 33.8058 31.0668 29.3345 34.0695Z" fill="#30A04E"/>
</svg>
