<svg width="50" height="50" viewBox="0 0 50 50" fill="none" xmlns="http://www.w3.org/2000/svg">
<path d="M46.9397 10.6277C47.9734 9.56983 49.0864 7.83533 49.0864 5.27001C48.7892 -0.837556 41.7195 -1.2847 38.4436 2.12563C35.2139 -1.60395 28.729 -0.339122 28.4964 5.27011C28.4965 6.69284 29.1988 8.20885 29.3198 9.1899C14.1049 9.48211 0.536303 35.5798 0 46.0847C0.000383485 47.7279 1.33644 49.0644 2.97872 49.0644C14.0209 48.7936 40.3374 33.4012 39.8438 19.9258C39.8449 19.8239 39.8476 19.7806 39.8492 19.7553C40.83 19.8692 42.3652 20.5807 43.7975 20.5807C49.4101 20.3467 50.6638 13.8534 46.9397 10.6277ZM32.973 29.1613C32.959 29.1785 32.9445 29.1957 32.9304 29.213L30.7992 27.0808C30.2376 26.519 29.3271 26.5189 28.7654 27.0803C28.2037 27.6417 28.2035 28.5523 28.7649 29.114L31.0046 31.3547C28.9911 33.4091 26.5065 35.4598 23.6798 37.395L21.1923 34.9053C20.6311 34.3434 19.7204 34.343 19.1586 34.9044C18.5968 35.4657 18.5963 36.3763 19.1576 36.9381L21.2125 38.9949C15.1591 42.7122 7.24489 46.1883 2.97872 46.1883C2.92234 46.1883 2.87652 46.142 2.87652 46.085C2.87652 43.0568 4.62406 38.1919 6.96552 33.4577L8.93002 35.4231C9.49163 35.9849 10.4021 35.985 10.9638 35.4236C11.5254 34.8622 11.5257 33.9516 10.9643 33.3899L8.35882 30.7831C9.97165 27.8393 11.6525 25.2255 13.6183 22.676L15.7629 24.8221C16.3244 25.3838 17.2349 25.3842 17.7967 24.8227C18.3585 24.2613 18.3588 23.3507 17.7974 22.789L15.4488 20.4387C17.6986 17.8746 19.8665 15.8326 22.5503 14.1753L25.1999 16.8261C25.7615 17.3879 26.6721 17.3879 27.2336 16.8266C27.7953 16.2652 27.7956 15.3546 27.2342 14.7929L25.2714 12.8292C30.7671 10.5077 36.8619 13.7312 36.9684 19.8813C36.9682 22.7798 35.624 25.9022 32.973 29.1613ZM43.9166 11.9472C44.9269 12.4676 46.2103 13.736 46.2103 15.2891C46.2103 16.6211 45.1279 17.7046 43.7975 17.7046C42.7006 17.7046 40.9555 16.7714 39.4167 16.8854C38.4002 13.4083 35.6615 10.6603 32.1912 9.63234C32.3055 8.1008 31.3726 6.3663 31.3726 5.27001C31.3726 3.93807 32.455 2.85454 33.7854 2.85454C35.9529 2.85454 37.1099 5.14701 37.1199 5.14202C37.3654 5.63384 37.8649 5.95501 38.4139 5.94964C38.9618 5.94437 39.4529 5.64065 39.6902 5.1473C39.7773 4.98489 40.9746 2.85444 43.7975 2.85444C45.1279 2.85444 46.2103 3.93798 46.2103 5.26992C46.2103 8.09534 44.082 9.29373 43.919 9.38126C43.4259 9.61863 43.1187 10.1077 43.1135 10.6552C43.1082 11.2048 43.4251 11.7012 43.9166 11.9472Z" fill="#D97706"/>
</svg>
