<svg width="531" height="173" viewBox="0 0 531 173" fill="none" xmlns="http://www.w3.org/2000/svg">
<path d="M510.99 10.7061C516.995 10.7061 521.696 12.5519 525.092 16.2437C528.489 19.8862 530.187 25.0054 530.187 31.6013C530.187 35.7853 529.4 39.4525 527.824 42.6027C526.298 45.7038 524.083 48.1158 521.179 49.8386C518.324 51.5614 514.928 52.4228 510.99 52.4228C505.034 52.4228 500.333 50.6015 496.888 46.959C493.491 43.2673 491.793 38.1234 491.793 31.5275C491.793 27.3435 492.556 23.701 494.082 20.5999C495.657 17.4496 497.872 15.0131 500.727 13.2903C503.631 11.5675 507.052 10.7061 510.99 10.7061ZM510.99 19.2709C508.627 19.2709 506.855 20.28 505.674 22.2981C504.493 24.2671 503.902 27.3435 503.902 31.5275C503.902 35.8099 504.468 38.9356 505.6 40.9045C506.781 42.8735 508.578 43.8579 510.99 43.8579C513.353 43.8579 515.125 42.8735 516.306 40.9045C517.487 38.8864 518.078 35.7853 518.078 31.6013C518.078 27.3189 517.487 24.1932 516.306 22.2243C515.174 20.2554 513.402 19.2709 510.99 19.2709Z" fill="#00391B"/>
<path d="M487.873 10.8535C489.3 10.8535 490.605 11.0258 491.786 11.3704L489.94 22.6671C488.464 22.3225 487.282 22.1503 486.396 22.1503C484.083 22.1503 482.311 22.9624 481.08 24.5868C479.899 26.162 478.963 28.5493 478.274 31.7488V51.1674H466.608V11.961H476.798L477.757 19.566C478.644 16.8588 479.973 14.7422 481.745 13.2162C483.566 11.6411 485.609 10.8535 487.873 10.8535Z" fill="#00391B"/>
<path d="M440.539 0C447.283 0 452.525 1.40286 456.266 4.20859C460.007 7.01432 461.877 11.1737 461.877 16.6867C461.877 22.4458 460.031 26.8021 456.34 29.7555C452.697 32.6596 447.799 34.1117 441.647 34.1117H436.109V51.1676H424V0H440.539ZM440.613 25.3992C443.468 25.3992 445.634 24.7347 447.11 23.4057C448.636 22.0274 449.399 19.7878 449.399 16.6867C449.399 11.3214 446.397 8.63868 440.391 8.63868H436.109V25.3992H440.613Z" fill="#00391B"/>
<path d="M400.912 143.07C398.034 152.336 393.311 159.443 386.743 164.391C380.266 169.429 371.54 172.263 360.565 172.893L358.271 157.914C365.108 157.014 370.146 155.485 373.384 153.326C376.713 151.167 379.367 147.703 381.346 142.936H374.059L352.198 71.2812H374.869L387.688 129.306L401.722 71.2812H423.718L400.912 143.07Z" fill="#00391B"/>
<path d="M341.659 145.23C335.451 145.23 330.593 143.475 327.085 139.967C323.666 136.369 321.957 131.286 321.957 124.719V42.8087L343.278 40.5146V123.909C343.278 126.878 344.492 128.362 346.921 128.362C348.181 128.362 349.35 128.137 350.43 127.687L354.613 142.801C350.745 144.42 346.427 145.23 341.659 145.23Z" fill="#00391B"/>
<path d="M282.597 68.9873C291.593 68.9873 298.295 72.3159 302.703 78.973C307.111 85.6302 309.315 94.9412 309.315 106.906C309.315 114.283 308.146 120.895 305.807 126.743C303.558 132.5 300.274 137.043 295.956 140.372C291.638 143.61 286.6 145.23 280.843 145.23C273.646 145.23 267.843 142.756 263.435 137.808V170.599L242.114 172.893V71.2813H260.871L261.951 79.2429C264.74 75.7344 267.933 73.1705 271.532 71.5512C275.13 69.8419 278.819 68.9873 282.597 68.9873ZM274.365 129.576C282.912 129.576 287.185 122.11 287.185 107.176C287.185 98.7195 286.24 92.8721 284.351 89.6334C282.462 86.3049 279.628 84.6406 275.85 84.6406C273.421 84.6406 271.127 85.3603 268.968 86.7997C266.899 88.239 265.054 90.3082 263.435 93.007V123.234C266.314 127.462 269.957 129.576 274.365 129.576Z" fill="#00391B"/>
<path d="M202.079 68.9873C211.075 68.9873 217.778 72.3159 222.186 78.973C226.594 85.6302 228.798 94.9412 228.798 106.906C228.798 114.283 227.628 120.895 225.289 126.743C223.04 132.5 219.757 137.043 215.439 140.372C211.12 143.61 206.083 145.23 200.325 145.23C193.128 145.23 187.326 142.756 182.918 137.808V170.599L161.597 172.893V71.2813H180.354L181.433 79.2429C184.222 75.7344 187.416 73.1705 191.014 71.5512C194.613 69.8419 198.301 68.9873 202.079 68.9873ZM193.848 129.576C202.394 129.576 206.667 122.11 206.667 107.176C206.667 98.7195 205.723 92.8721 203.834 89.6334C201.944 86.3049 199.111 84.6406 195.332 84.6406C192.903 84.6406 190.609 85.3603 188.45 86.7997C186.381 88.239 184.537 90.3082 182.918 93.007V123.234C185.796 127.462 189.44 129.576 193.848 129.576Z" fill="#00391B"/>
<path d="M144.828 142.936H126.341L125.396 133.894C120.179 141.451 112.937 145.23 103.671 145.23C97.1035 145.23 92.1106 143.25 88.6921 139.292C85.3635 135.334 83.6992 129.801 83.6992 122.694V71.2812H105.02V119.995C105.02 123.504 105.56 125.978 106.639 127.417C107.809 128.767 109.563 129.441 111.902 129.441C116.4 129.441 120.269 126.652 123.507 121.075V71.2812H144.828V142.936Z" fill="#00391B"/>
<path d="M37.6488 47.1265C44.6658 47.1265 50.7382 48.116 55.866 50.0952C61.0838 52.0743 65.8068 55.088 70.0349 59.1363L59.7793 71.1462C53.3921 65.9284 46.555 63.3195 39.2681 63.3195C35.3998 63.3195 32.3411 64.1292 30.0921 65.7485C27.843 67.2778 26.7185 69.5269 26.7185 72.4956C26.7185 74.5647 27.2133 76.274 28.2029 77.6234C29.1925 78.8828 30.9467 80.0973 33.4656 81.2668C35.9846 82.4363 39.7629 83.8307 44.8008 85.45C54.3367 88.5087 61.3537 92.2871 65.8517 96.7852C70.3498 101.193 72.5988 107.491 72.5988 115.677C72.5988 121.525 71.1145 126.697 68.1458 131.195C65.177 135.603 60.9039 139.067 55.3263 141.586C49.7486 144.015 43.1365 145.229 35.4898 145.229C27.8431 145.229 21.051 144.015 15.1135 141.586C9.26602 139.157 4.22819 135.918 0 131.87L11.2002 119.59C14.7986 122.649 18.4871 124.943 22.2654 126.472C26.1338 128.002 30.317 128.766 34.8151 128.766C39.4031 128.766 43.0015 127.777 45.6104 125.798C48.3093 123.729 49.6587 120.895 49.6587 117.296C49.6587 114.957 49.1639 113.023 48.1743 111.494C47.1848 109.875 45.4755 108.435 43.0465 107.176C40.6176 105.916 37.1091 104.567 32.521 103.127C22.1755 99.9788 14.7986 96.1104 10.3905 91.5224C6.07239 86.9344 3.91332 81.1319 3.91332 74.1149C3.91332 68.7172 5.3527 63.9942 8.23147 59.946C11.1102 55.8077 15.1135 52.6591 20.2413 50.5C25.3691 48.251 31.1716 47.1265 37.6488 47.1265Z" fill="#00391B"/>
</svg>
