<svg width="145" height="196" viewBox="0 0 145 196" fill="none" xmlns="http://www.w3.org/2000/svg">
<path d="M52.8959 57.2607C62.7546 57.2607 71.2862 58.6511 78.4907 61.4317C85.8216 64.2124 92.4573 68.4466 98.3978 74.1343L83 90C74.026 82.6691 65.4089 80.0117 55.171 80.0117C49.7361 80.0117 45.4387 81.1492 42.2788 83.4243C39.119 85.573 37.539 88.7329 37.539 92.9039C37.539 95.8109 38.2342 98.2124 39.6245 100.108C41.0149 101.878 43.4796 103.584 47.0186 105.227C50.5576 106.87 55.8662 108.83 62.9442 111.105C76.342 115.402 86.2007 120.711 92.5204 127.03C98.8401 133.224 102 142.071 102 153.573C102 161.789 99.9145 169.056 95.7435 175.376C91.5725 181.569 85.5688 186.435 77.7323 189.974C69.8959 193.387 60.6059 195.093 49.8625 195.093C39.119 195.093 29.5762 193.387 21.2342 189.974C13.0186 186.562 5.94052 182.012 0 176.324L15.7361 159.071C20.7918 163.369 25.974 166.592 31.2825 168.74C36.7175 170.889 42.5948 171.963 48.9145 171.963C55.3606 171.963 60.4164 170.573 64.0818 167.792C67.8736 164.885 69.7695 160.904 69.7695 155.848C69.7695 152.562 69.0743 149.844 67.684 147.696C66.2937 145.421 63.8922 143.398 60.4795 141.629C57.0669 139.859 52.1375 137.963 45.6914 135.941C31.1561 131.517 20.7918 126.082 14.5985 119.636C8.5316 113.19 5.49814 105.038 5.49814 95.179C5.49814 87.5953 7.52045 80.9596 11.5651 75.2719C15.6097 69.4578 21.2342 65.034 28.4387 62.0005C35.6431 58.8407 43.7955 57.2607 52.8959 57.2607Z" fill="#00391B"/>
<path d="M83 0H107V90H83V0Z" fill="#00391B"/>
<path d="M83 7C83 3.13401 86.134 0 90 0H116C132.016 0 145 12.9837 145 29C145 45.0163 132.016 58 116 58H83V7Z" fill="#00391B"/>
<path d="M107 18C107 17.4477 107.448 17 108 17H122C122.552 17 123 17.4477 123 18V41H107V18Z" fill="#F7F0EA"/>
</svg>
